<?xml version="1.0" standalone="no"?>
<!DOCTYPE svg PUBLIC "-//W3C//DTD SVG 20010904//EN"
 "http://www.w3.org/TR/2001/REC-SVG-20010904/DTD/svg10.dtd">
<svg version="1.0" xmlns="http://www.w3.org/2000/svg"
 width="1650.000000pt" height="1650.000000pt" viewBox="0 0 1650.000000 1650.000000"
 preserveAspectRatio="xMidYMid meet">

<g transform="translate(0.000000,1650.000000) scale(0.100000,-0.100000)"
fill="#000000" stroke="none">
<path d="M7730 16480 c-2041 -142 -3883 -975 -5309 -2401 -1312 -1311 -2140
-3014 -2356 -4844 -45 -384 -50 -487 -50 -995 1 -507 7 -630 56 -1020 194
-1564 839 -3041 1860 -4260 924 -1104 2124 -1948 3471 -2444 1416 -520 2951
-641 4443 -350 2152 421 4066 1705 5280 3544 726 1100 1168 2323 1314 3635 37
331 46 503 46 910 0 407 -9 578 -46 910 -186 1681 -866 3222 -1997 4525 -155
178 -571 596 -747 749 -957 835 -2039 1421 -3241 1756 -470 131 -953 218
-1504 271 -192 18 -1019 28 -1220 14z m930 -110 c1020 -55 1969 -281 2880
-685 1985 -880 3547 -2532 4315 -4565 466 -1233 623 -2582 455 -3904 -210
-1647 -919 -3182 -2043 -4424 -144 -160 -496 -506 -647 -638 -565 -494 -1171
-898 -1825 -1215 -196 -95 -366 -171 -371 -166 -12 14 -92 153 -120 209 -33
65 -36 78 -30 128 3 30 24 120 46 200 34 121 43 171 52 303 22 310 -17 569
-117 772 -89 181 -148 233 -376 328 -96 41 -225 103 -257 125 -11 7 3 41 64
153 142 264 436 731 507 806 50 53 119 83 286 128 183 49 244 79 322 163 60
64 90 110 210 327 58 103 92 140 146 154 21 5 103 15 183 21 267 21 408 46
865 156 171 41 333 86 361 99 74 36 139 97 170 161 26 53 27 59 21 177 -9 206
-61 372 -247 787 -116 261 -178 378 -327 620 -66 107 -132 219 -147 247 l-26
53 62 31 c35 18 132 62 216 100 172 76 262 130 321 194 37 41 39 46 46 130 15
171 -4 254 -96 419 -137 248 -335 522 -562 780 -67 77 -140 162 -161 190 -103
135 -206 247 -521 566 -187 190 -411 426 -497 525 -359 412 -401 485 -473 821
-50 234 -67 291 -152 514 -97 256 -181 426 -352 720 -78 133 -164 287 -192
342 l-50 100 23 25 c45 48 133 97 292 162 125 52 215 99 392 205 126 77 285
176 354 222 395 262 646 546 749 847 l19 55 -38 16 c-90 36 -152 31 -390 -32
-295 -77 -480 -71 -1141 39 -460 76 -619 110 -1004 214 -378 103 -648 169
-1170 285 -220 50 -440 101 -490 114 -148 39 -271 57 -441 63 -393 14 -800
-71 -1244 -262 -47 -20 -226 -109 -398 -198 -282 -145 -329 -173 -465 -276
-724 -546 -1222 -1017 -1489 -1410 -51 -75 -125 -168 -163 -208 -63 -64 -75
-72 -120 -79 -50 -7 -167 3 -335 31 -47 8 -112 14 -145 15 -33 0 -141 9 -240
20 -242 26 -399 27 -442 1 -33 -20 -77 -87 -88 -133 -6 -23 0 -31 46 -68 29
-22 142 -86 251 -140 201 -100 266 -141 326 -202 l32 -34 -32 -24 c-189 -137
-414 -339 -513 -460 -50 -61 -125 -175 -125 -190 0 -4 19 -13 42 -21 33 -11
109 -14 323 -14 250 0 286 -2 338 -19 31 -11 57 -23 57 -27 0 -4 -39 -56 -86
-115 -146 -184 -279 -386 -364 -555 -25 -49 -29 -64 -18 -71 25 -17 172 1 332
42 161 41 276 52 276 28 0 -7 -36 -102 -80 -213 -124 -312 -240 -631 -265
-730 -52 -206 -51 -339 4 -503 42 -126 130 -307 184 -378 51 -66 491 -504 712
-708 175 -161 401 -343 542 -437 59 -40 228 -161 374 -270 146 -109 324 -235
394 -280 152 -96 204 -134 345 -248 307 -248 563 -484 647 -596 92 -121 200
-389 210 -519 l5 -71 -72 -110 c-40 -60 -86 -137 -101 -170 -38 -82 -66 -228
-79 -420 -20 -284 -13 -267 -149 -425 -164 -192 -191 -295 -159 -617 14 -140
11 -149 -74 -280 -64 -99 -171 -208 -378 -388 -173 -151 -284 -260 -430 -425
-112 -126 -142 -164 -321 -410 -276 -381 -388 -556 -473 -742 -19 -43 -39 -78
-45 -78 -11 0 -226 125 -361 210 -1357 852 -2439 2087 -3095 3535 -403 889
-624 1763 -707 2790 -19 242 -16 938 6 1195 105 1237 450 2365 1040 3394 380
663 774 1176 1325 1726 342 342 628 588 982 843 1289 929 2806 1458 4389 1530
167 8 614 6 780 -3z"/>
</g>
</svg>
